<?xml version="1.0" encoding="UTF-8"?>
<svg width="487px" height="106px" viewBox="0 0 487 106" version="1.1" xmlns="http://www.w3.org/2000/svg" xmlns:xlink="http://www.w3.org/1999/xlink">
    <!-- Generator: Sketch 54.1 (76490) - https://sketchapp.com -->
    <title>Group</title>
    <desc>Created with Sketch.</desc>
    <g id="Page-1" stroke="none" stroke-width="1" fill="none" fill-rule="evenodd">
        <g id="Exportable" transform="translate(-481.000000, -335.000000)" fill-rule="nonzero">
            <g id="Group" transform="translate(481.953125, 335.000000)">
                <g id="np_frame_687953_000000" transform="translate(376.046875, 0.000000)" fill="#FFE240">
                    <polygon id="Path" points="0 42 48 42 48 78 0 78"></polygon>
                    <polygon id="Path" points="0 86 110 86 110 105 0 105"></polygon>
                    <polygon id="Path" points="57 22 89 22 89 54 57 54"></polygon>
                    <polygon id="Path" points="25 0 48 0 48 34 25 34"></polygon>
                    <polygon id="Path" points="57 62 110 62 110 78 57 78"></polygon>
                </g>
                <path d="M36.4375,85.3203125 C36.4375,91.5937814 35.141289,96.5924293 32.5488281,100.316406 C29.9563672,104.040383 26.1536709,105.902344 21.140625,105.902344 C18.9635308,105.902344 17.0657633,105.401047 15.4472656,104.398438 C13.8287679,103.395828 12.4466203,101.934905 11.3007812,100.015625 L10.5703125,105 L0,105 L0,37.96875 L12.203125,37.96875 L12.203125,62.4609375 C13.2916721,60.9140548 14.5735603,59.7252646 16.0488281,58.8945312 C17.5240959,58.0637979 19.192699,57.6484375 21.0546875,57.6484375 C26.0963794,57.6484375 29.9205599,59.5891733 32.5273438,63.4707031 C35.1341276,67.3522329 36.4375,72.5299155 36.4375,79.0039062 L36.4375,85.3203125 Z M24.2773438,79.0039062 C24.2773438,75.3658672 23.8261764,72.5299581 22.9238281,70.4960938 C22.0214799,68.4622294 20.3528768,67.4453125 17.9179688,67.4453125 C16.6002538,67.4453125 15.4687547,67.7747363 14.5234375,68.4335938 C13.5781203,69.0924512 12.8046905,70.0234315 12.203125,71.2265625 L12.203125,92.9257812 C12.7760445,93.9856824 13.5423129,94.7805963 14.5019531,95.3105469 C15.4615933,95.8404974 16.6145766,96.1054688 17.9609375,96.1054688 C20.4244915,96.1054688 22.0930946,95.1959726 22.9667969,93.3769531 C23.8404992,91.5579336 24.2773438,88.8724136 24.2773438,85.3203125 L24.2773438,79.0039062 Z M65.3984375,105 C65.0546858,104.226559 64.7467462,103.381515 64.4746094,102.464844 C64.2024726,101.548172 63.9947924,100.617192 63.8515625,99.671875 C62.7057234,101.562509 61.309253,103.073562 59.6621094,104.205078 C58.0149657,105.336594 56.1028755,105.902344 53.9257812,105.902344 C50.0872204,105.902344 47.0149855,104.64194 44.7089844,102.121094 C42.4029833,99.6002478 41.25,96.2343961 41.25,92.0234375 C41.25,87.4687272 42.7180843,83.9310022 45.6542969,81.4101562 C48.5905095,78.8893103 52.951794,77.6289062 58.7382812,77.6289062 L63.3359375,77.6289062 L63.3359375,73.8476562 C63.3359375,71.5846241 62.9277385,69.8444071 62.1113281,68.6269531 C61.2949178,67.4094991 60.0703207,66.8007812 58.4375,66.8007812 C57.0624931,66.8007812 56.0312534,67.2877555 55.34375,68.2617188 C54.6562466,69.235682 54.3125,70.6536365 54.3125,72.515625 L42.4960938,72.4726562 L42.3671875,72.2148438 C42.2239576,68.1757611 43.7206874,64.7382954 46.8574219,61.9023438 C49.9941563,59.0663921 54.1262764,57.6484375 59.2539062,57.6484375 C64.0950763,57.6484375 68.0266776,59.0592307 71.0488281,61.8808594 C74.0709787,64.7024881 75.5820312,68.720026 75.5820312,73.9335938 L75.5820312,92.7539062 C75.5820312,95.0455844 75.7395818,97.1796776 76.0546875,99.15625 C76.3697932,101.132822 76.8567675,103.08072 77.515625,105 L65.3984375,105 Z M57.4492188,96.7070312 C58.6809957,96.7070312 59.8196562,96.3776075 60.8652344,95.71875 C61.9108125,95.0598925 62.734372,94.2148489 63.3359375,93.1835938 L63.3359375,84.6328125 L58.7382812,84.6328125 C56.8762928,84.6328125 55.5299521,85.2773373 54.6992188,86.5664062 C53.8684854,87.8554752 53.453125,89.4882714 53.453125,91.4648438 C53.453125,93.0117265 53.8111943,94.2721305 54.5273438,95.2460938 C55.2434932,96.220057 56.2174418,96.7070312 57.4492188,96.7070312 Z M103.554687,92.8398438 C103.554687,91.5221288 103.039068,90.3834683 102.007812,89.4238281 C100.976557,88.4641879 99.0000146,87.2825591 96.078125,85.8789062 C91.4088308,84.1315017 87.9069127,82.1549589 85.5722656,79.9492188 C83.2376185,77.7434786 82.0703125,74.8789239 82.0703125,71.3554688 C82.0703125,67.5741998 83.5670423,64.3444144 86.5605469,61.6660156 C89.5540514,58.9876168 93.5142983,57.6484375 98.4414062,57.6484375 C103.597682,57.6484375 107.708318,59.0234238 110.773437,61.7734375 C113.838557,64.5234512 115.313803,68.0325307 115.199219,72.3007812 L115.070312,72.5585938 L103.296875,72.5585938 C103.296875,70.6106673 102.895837,69.0638078 102.09375,67.9179688 C101.291663,66.7721297 100.059904,66.1992188 98.3984375,66.1992188 C97.0807226,66.1992188 95.9635463,66.6432247 95.046875,67.53125 C94.1302037,68.4192753 93.671875,69.4934833 93.671875,70.7539062 C93.671875,72.1289131 94.1302037,73.2389281 95.046875,74.0839844 C95.9635463,74.9290407 97.9544118,76.0820239 101.019531,77.5429688 C105.889347,79.2044354 109.498686,81.1738167 111.847656,83.4511719 C114.196626,85.728527 115.371094,88.7148253 115.371094,92.4101562 C115.371094,96.363301 113.795589,99.6002478 110.644531,102.121094 C107.493474,104.64194 103.354192,105.902344 98.2265625,105.902344 C92.8697649,105.902344 88.6302239,104.341161 85.5078125,101.21875 C82.3854011,98.0963386 80.8958326,94.5729363 81.0390625,90.6484375 L81.125,90.390625 L92.296875,90.390625 C92.354167,92.854179 92.9270779,94.6302029 94.015625,95.71875 C95.1041721,96.8072971 96.6080633,97.3515625 98.5273437,97.3515625 C100.160164,97.3515625 101.406246,96.9505248 102.265625,96.1484375 C103.125004,95.3463502 103.554687,94.2434966 103.554687,92.8398438 Z M139.5625,105.902344 C133.718721,105.902344 129.078142,103.983092 125.640625,100.144531 C122.203108,96.3059704 120.484375,91.464873 120.484375,85.6210938 L120.484375,79.0898438 C120.484375,72.8163749 122.081364,67.6744992 125.275391,63.6640625 C128.469417,59.6536258 132.887993,57.6484375 138.53125,57.6484375 C143.973986,57.6484375 148.184881,59.4674297 151.164062,63.1054688 C154.143244,66.7435078 155.632812,71.6991874 155.632812,77.9726562 L155.632812,85.4492188 L132.644531,85.4492188 L132.644531,85.6210938 C132.644531,88.6862132 133.339186,91.2070214 134.728516,93.1835938 C136.117845,95.1601661 138.216132,96.1484375 141.023438,96.1484375 C143.315116,96.1484375 145.177076,95.8906276 146.609375,95.375 C148.041674,94.8593724 149.746084,94.000006 151.722656,92.796875 L154.816406,100.574219 C153.212232,102.121101 151.070977,103.395828 148.392578,104.398438 C145.714179,105.401047 142.770849,105.902344 139.5625,105.902344 Z M138.53125,67.4453125 C136.583324,67.4453125 135.151046,68.3333245 134.234375,70.109375 C133.317704,71.8854255 132.802084,74.2773287 132.6875,77.2851562 L143.644531,77.2851562 L143.644531,75.5664062 C143.644531,72.9882684 143.243494,70.9902415 142.441406,69.5722656 C141.639319,68.1542898 140.335947,67.4453125 138.53125,67.4453125 Z M164.527344,105 L164.527344,67.359375 L158.8125,67.359375 L158.8125,58.5078125 L164.527344,58.5078125 L164.527344,53.3515625 C164.527344,48.1379948 165.873684,44.1204568 168.566406,41.2988281 C171.259128,38.4771994 175.04034,37.0664062 179.910156,37.0664062 C180.855473,37.0664062 181.800777,37.1451815 182.746094,37.3027344 C183.691411,37.4602872 184.779942,37.6822902 186.011719,37.96875 L184.980469,47.3359375 C184.407549,47.2213536 183.856122,47.1210942 183.326172,47.0351562 C182.796221,46.9492183 182.173181,46.90625 181.457031,46.90625 C179.910149,46.90625 178.735681,47.4648382 177.933594,48.5820312 C177.131506,49.6992243 176.730469,51.2890522 176.730469,53.3515625 L176.730469,58.5078125 L184.207031,58.5078125 L184.207031,67.359375 L176.730469,67.359375 L176.730469,105 L164.527344,105 Z M211.535156,69.6367188 L206.9375,69.5078125 C205.648431,69.5078125 204.581384,69.8229135 203.736328,70.453125 C202.891272,71.0833365 202.239586,71.9713484 201.78125,73.1171875 L201.78125,105 L189.578125,105 L189.578125,58.5078125 L200.964844,58.5078125 L201.4375,64.7382812 L201.652344,64.8242188 C202.397139,62.5898326 203.43554,60.8352928 204.767578,59.5605469 C206.099616,58.2858009 207.653637,57.6484375 209.429688,57.6484375 C209.973961,57.6484375 210.554033,57.6985672 211.169922,57.7988281 C211.78581,57.899089 212.322914,58.0208326 212.78125,58.1640625 L211.535156,69.6367188 Z M240.367188,105 C240.023436,104.226559 239.715496,103.381515 239.443359,102.464844 C239.171223,101.548172 238.963542,100.617192 238.820312,99.671875 C237.674473,101.562509 236.278003,103.073562 234.630859,104.205078 C232.983716,105.336594 231.071625,105.902344 228.894531,105.902344 C225.05597,105.902344 221.983735,104.64194 219.677734,102.121094 C217.371733,99.6002478 216.21875,96.2343961 216.21875,92.0234375 C216.21875,87.4687272 217.686834,83.9310022 220.623047,81.4101562 C223.559259,78.8893103 227.920544,77.6289062 233.707031,77.6289062 L238.304688,77.6289062 L238.304688,73.8476562 C238.304688,71.5846241 237.896488,69.8444071 237.080078,68.6269531 C236.263668,67.4094991 235.039071,66.8007812 233.40625,66.8007812 C232.031243,66.8007812 231.000003,67.2877555 230.3125,68.2617188 C229.624997,69.235682 229.28125,70.6536365 229.28125,72.515625 L217.464844,72.4726562 L217.335938,72.2148438 C217.192708,68.1757611 218.689437,64.7382954 221.826172,61.9023438 C224.962906,59.0663921 229.095026,57.6484375 234.222656,57.6484375 C239.063826,57.6484375 242.995428,59.0592307 246.017578,61.8808594 C249.039729,64.7024881 250.550781,68.720026 250.550781,73.9335938 L250.550781,92.7539062 C250.550781,95.0455844 250.708332,97.1796776 251.023438,99.15625 C251.338543,101.132822 251.825518,103.08072 252.484375,105 L240.367188,105 Z M232.417969,96.7070312 C233.649746,96.7070312 234.788406,96.3776075 235.833984,95.71875 C236.879563,95.0598925 237.703122,94.2148489 238.304688,93.1835938 L238.304688,84.6328125 L233.707031,84.6328125 C231.845043,84.6328125 230.498702,85.2773373 229.667969,86.5664062 C228.837235,87.8554752 228.421875,89.4882714 228.421875,91.4648438 C228.421875,93.0117265 228.779944,94.2721305 229.496094,95.2460938 C230.212243,96.220057 231.186192,96.7070312 232.417969,96.7070312 Z M269.714844,58.5078125 L270.1875,64.4375 C271.419277,62.2604058 272.966137,60.5846413 274.828125,59.4101562 C276.690113,58.2356712 278.824207,57.6484375 281.230469,57.6484375 C283.579439,57.6484375 285.627595,58.2714781 287.375,59.5175781 C289.122405,60.7636781 290.454422,62.6614456 291.371094,65.2109375 C292.574225,62.8046755 294.121084,60.9427149 296.011719,59.625 C297.902353,58.3072851 300.10806,57.6484375 302.628906,57.6484375 C306.467467,57.6484375 309.496734,59.231104 311.716797,62.3964844 C313.93686,65.5618648 315.046875,70.3958008 315.046875,76.8984375 L315.046875,105 L302.800781,105 L302.800781,76.8984375 C302.800781,73.3176904 302.414066,70.847012 301.640625,69.4863281 C300.867184,68.1256442 299.664071,67.4453125 298.03125,67.4453125 C296.856765,67.4453125 295.811203,67.7890591 294.894531,68.4765625 C293.97786,69.1640659 293.218753,70.109369 292.617188,71.3125 C292.645833,71.8567736 292.674479,72.3938776 292.703125,72.9238281 C292.731771,73.4537787 292.746094,74.0052055 292.746094,74.578125 L292.746094,105 L280.585938,105 L280.585938,76.8984375 C280.585938,73.3463364 280.192061,70.8828194 279.404297,69.5078125 C278.616533,68.1328056 277.391935,67.4453125 275.730469,67.4453125 C274.613276,67.4453125 273.617843,67.7246066 272.744141,68.2832031 C271.870438,68.8417997 271.118493,69.6223908 270.488281,70.625 L270.488281,105 L258.328125,105 L258.328125,58.5078125 L269.714844,58.5078125 Z M341.128906,105.902344 C335.285127,105.902344 330.644548,103.983092 327.207031,100.144531 C323.769514,96.3059704 322.050781,91.464873 322.050781,85.6210938 L322.050781,79.0898438 C322.050781,72.8163749 323.64777,67.6744992 326.841797,63.6640625 C330.035823,59.6536258 334.454399,57.6484375 340.097656,57.6484375 C345.540392,57.6484375 349.751287,59.4674297 352.730469,63.1054688 C355.70965,66.7435078 357.199219,71.6991874 357.199219,77.9726562 L357.199219,85.4492188 L334.210938,85.4492188 L334.210938,85.6210938 C334.210938,88.6862132 334.905592,91.2070214 336.294922,93.1835938 C337.684252,95.1601661 339.782538,96.1484375 342.589844,96.1484375 C344.881522,96.1484375 346.743482,95.8906276 348.175781,95.375 C349.60808,94.8593724 351.31249,94.000006 353.289062,92.796875 L356.382812,100.574219 C354.778638,102.121101 352.637383,103.395828 349.958984,104.398438 C347.280586,105.401047 344.337256,105.902344 341.128906,105.902344 Z M340.097656,67.4453125 C338.14973,67.4453125 336.717453,68.3333245 335.800781,70.109375 C334.88411,71.8854255 334.36849,74.2773287 334.253906,77.2851562 L345.210938,77.2851562 L345.210938,75.5664062 C345.210938,72.9882684 344.8099,70.9902415 344.007812,69.5722656 C343.205725,68.1542898 341.902353,67.4453125 340.097656,67.4453125 Z" id="baseframe" fill="#343434"></path>
            </g>
        </g>
    </g>
</svg>